HIERARCHY
ROOT Hips
{
    OFFSET 0.000000 0.000000 0.000000
    CHANNELS 6 Xposition Yposition Zposition Zrotation Xrotation Yrotation
        JOINT Chest
        {
            OFFSET -0.000000 31.935503 -0.000000
            CHANNELS 3 Zrotation Xrotation Yrotation
            JOINT Neck
            {
                OFFSET -0.000000 23.713140 0.000000
                CHANNELS 3 Zrotation Xrotation Yrotation
                JOINT Head
                {
                    OFFSET -0.000000 10.938888 0.000000
                    CHANNELS 3 Zrotation Xrotation Yrotation
                    End Site
                    {
                        OFFSET -0.000000 16.905556 0.000000
                    }
                }
            }
            JOINT LeftCollar
            {
                OFFSET -0.000000 23.713140 0.000000
                CHANNELS 3 Zrotation Xrotation Yrotation
                JOINT LeftShoulder
                {
                    OFFSET 19.888887 -0.000000 0.000000
                    CHANNELS 3 Zrotation Xrotation Yrotation
                    JOINT LeftElbow
                    {
                        OFFSET 23.906332 0.000000 0.000000
                        CHANNELS 3 Zrotation Xrotation Yrotation
                        JOINT LeftWrist
                        {
                            OFFSET 25.116924 0.000000 0.000000
                            CHANNELS 3 Zrotation Xrotation Yrotation
                            End Site
                            {
                                OFFSET 0.000000 -14.916667 0.000000
                            }
                        }
                    }
                }
            }
            JOINT RightCollar
            {
                OFFSET -0.000000 23.713140 0.000000
                CHANNELS 3 Zrotation Xrotation Yrotation
                JOINT RightShoulder
                {
                    OFFSET -19.888887 0.000000 0.000000
                    CHANNELS 3 Zrotation Xrotation Yrotation
                    JOINT RightElbow
                    {
                        OFFSET -23.906332 0.000000 0.000000
                        CHANNELS 3 Zrotation Xrotation Yrotation
                        JOINT RightWrist
                        {
                            OFFSET -25.116924 0.000000 0.000000
                            CHANNELS 3 Zrotation Xrotation Yrotation
                            End Site
                            {
                                OFFSET -0.000000 -14.916667 0.000000
                            }
                        }
                    }
                }
            }
        }
    JOINT LeftHip
    {
        OFFSET 11.933332 0.000000 0.000000
        CHANNELS 3 Zrotation Xrotation Yrotation
        JOINT LeftKnee
        {
            OFFSET -0.000000 -35.996647 0.000000
            CHANNELS 3 Zrotation Xrotation Yrotation
            JOINT LeftAnkle
            {
                OFFSET -0.000000 -39.788193 0.000000
                CHANNELS 3 Zrotation Xrotation Yrotation
                End Site
                {
                    OFFSET -0.000000 -4.972222 16.905556
                }
            }
        }
    }
    JOINT RightHip
    {
        OFFSET -11.933332 0.000000 0.000000
        CHANNELS 3 Zrotation Xrotation Yrotation
        JOINT RightKnee
        {
            OFFSET -0.000000 -35.996647 0.000000
            CHANNELS 3 Zrotation Xrotation Yrotation
            JOINT RightAnkle
            {
                OFFSET -0.000000 -39.788193 0.000000
                CHANNELS 3 Zrotation Xrotation Yrotation
                End Site
                {
                    OFFSET -0.000000 -4.972222 16.905556
                }
            }
        }
    }
}
MOTION
Frames:    14
Frame Time:    0.010000
-55.539841    87.102013    -23.437891    -5.049063    3.684098    -83.852768    5.729454    6.080379    0.791126    14.756198    15.386556    20.774364    -37.345669    -20.780825    20.281565    -16.634558    0.530635    -3.437330    -40.147892    46.951157    -25.732050    2.308702    -1.108778    -52.675262    101.775322    0.622896    56.318287    7.305933    -1.142535    -17.753244    25.371218    64.927162    42.897030    -5.437067    -2.698495    52.185646    -102.597420    -4.283347    -13.437278    15.142435    4.930820    5.828578    2.679534    6.672755    -0.417051    -14.898081    -5.176409    18.268520    0.718376    3.107255    -1.829099    0.515486    14.852271    -11.164704    4.387756    -13.794644    0.338336    
-55.539234    87.109108    -23.444410    -5.049297    3.680697    -83.879997    5.634336    5.973439    0.842671    17.189840    14.752183    20.029104    -36.759567    -23.695971    14.270957    -16.510660    0.584937    -4.317116    -40.363945    46.978153    -25.242775    2.221114    -1.073806    -52.709217    101.757240    0.526625    56.184872    7.482361    -1.229547    -18.405506    25.386848    65.111893    42.893246    -5.647418    -2.835968    52.121048    -102.488182    -4.272737    -13.638567    15.148488    4.905269    5.880125    2.681005    6.746550    -0.534247    -14.911639    -5.209821    18.335850    0.720594    3.146233    -1.790327    0.517610    14.783674    -11.164842    4.360639    -13.767567    0.338243    
-55.512352    87.091156    -23.447292    -5.043802    3.698732    -83.873222    5.652010    5.971758    0.846426    16.394278    15.040170    20.204329    -35.938217    -24.306189    14.386237    -16.525238    0.614070    -4.155308    -39.639969    47.318748    -26.023500    2.363868    -1.181260    -52.716282    101.632851    1.273182    56.525475    7.470296    -1.225533    -18.406069    25.445377    65.023972    42.862743    -5.540947    -2.731450    52.134468    -102.670265    -4.311701    -13.692042    15.178658    4.846877    5.852841    2.664836    6.813532    -0.509416    -14.902709    -5.233537    18.330217    0.751221    3.154776    -1.810416    0.504214    14.734431    -11.138318    4.400824    -13.736736    0.313977    
-55.506622    87.095512    -23.452324    -5.044483    3.704087    -83.878487    5.658235    5.962713    0.867998    16.543320    14.945708    20.180313    -36.069420    -24.112280    14.412474    -16.531267    0.580153    -4.123078    -39.460651    47.430824    -26.197517    2.476443    -1.256130    -52.750629    101.537849    1.472068    56.609993    7.452130    -1.219490    -18.406557    25.372320    65.047020    42.962193    -5.575000    -2.719371    52.112064    -102.697937    -4.371005    -13.764694    15.193610    4.818405    5.857313    2.656460    6.862654    -0.532319    -14.901383    -5.252725    18.346132    0.762803    3.173787    -1.808362    0.498938    14.691974    -11.127665    4.407960    -13.715021    0.304741    
-55.501038    87.102058    -23.458054    -5.047749    3.710042    -83.883781    5.665617    5.955827    0.893607    16.702909    14.839710    20.152906    -36.198589    -23.909008    14.429150    -16.531219    0.614502    -4.097567    -39.279320    47.465870    -26.388369    2.410168    -1.215231    -52.733093    101.559502    1.652283    56.643444    7.441905    -1.186602    -18.409653    25.276096    65.039772    43.081810    -5.523755    -2.699152    52.101986    -102.873039    -4.437562    -13.831974    15.211143    4.788575    5.863123    2.645875    6.917570    -0.555729    -14.897098    -5.273728    18.360769    0.776345    3.197221    -1.806699    0.491812    14.644398    -11.119519    4.413366    -13.690273    0.297888    
-55.495453    87.109879    -23.463964    -5.054862    3.716264    -83.889130    5.674521    5.952795    0.923508    16.856537    14.727926    20.126223    -36.318630    -23.700682    14.448858    -16.535311    0.586746    -4.076501    -39.105000    47.557152    -26.562071    2.532595    -1.289729    -52.769535    101.363831    1.851252    56.670033    7.408639    -1.217230    -18.412607    25.248095    65.087532    43.163464    -5.627857    -2.760631    52.044651    -102.880417    -4.563859    -13.881190    15.230710    4.759613    5.872024    2.633435    6.976817    -0.579343    -14.890140    -5.295937    18.372322    0.791628    3.225626    -1.804808    0.482637    14.592936    -11.118162    4.416197    -13.662636    0.297313    
-55.489861    87.118172    -23.469517    -5.067021    3.722183    -83.894646    5.684064    5.954669    0.957919    16.997536    14.615586    20.100660    -36.422867    -23.496101    14.470116    -16.535244    0.614789    -4.063476    -38.948410    47.573921    -26.729706    2.525235    -1.233810    -52.762455    101.307915    2.050064    56.700275    7.387603    -1.210228    -18.416254    25.189579    65.093483    43.244148    -5.573649    -2.691223    52.038971    -103.103706    -4.649307    -13.975987    15.251421    4.734097    5.885694    2.619731    7.038322    -0.603468    -14.881264    -5.318431    18.379471    0.808029    3.259762    -1.801787    0.471490    14.538859    -11.126809    4.418067    -13.632371    0.305787    
-55.484337    87.126282    -23.474218    -5.084934    3.727200    -83.900429    5.693986    5.962071    0.996995    17.114849    14.507775    20.079071    -36.502445    -23.304071    14.494426    -16.540859    0.575523    -4.056414    -38.815437    47.644165    -26.861008    2.635144    -1.332241    -52.809322    101.147552    2.263779    56.689941    7.366062    -1.203057    -18.418661    25.137711    65.094971    43.333004    -5.527338    -2.696254    52.019676    -103.293823    -4.754112    -14.017696    15.272389    4.714112    5.905013    2.605265    7.100142    -0.629479    -14.871511    -5.340820    18.382494    0.824670    3.299628    -1.796926    0.458740    14.484004    -11.146661    4.421421    -13.600092    0.323894    
-55.478794    87.133636    -23.477615    -5.108214    3.730884    -83.906143    5.702844    5.974398    1.040235    17.210735    14.407464    20.059750    -36.559128    -23.127924    14.518852    -16.541796    0.603636    -4.060513    -38.707245    47.625435    -26.979639    2.573934    -1.297875    -52.811058    101.104927    2.457506    56.630470    7.351985    -1.177519    -18.423555    25.075397    65.076019    43.427551    -5.461892    -2.668203    52.013882    -103.467659    -4.842127    -14.064014    15.292813    4.700294    5.929220    2.590335    7.160387    -0.658998    -14.861009    -5.362460    18.382927    0.840593    3.344034    -1.790017    0.445001    14.430444    -11.176753    4.428648    -13.566887    0.350277    
-55.472469    87.139664    -23.479233    -5.133827    3.733286    -83.910141    5.710941    5.988671    1.085949    17.278320    14.316277    20.045795    -36.589809    -22.971287    14.545923    -16.547747    0.569709    -4.071526    -38.627892    47.652843    -27.058031    2.693527    -1.382393    -52.871014    100.871346    2.656987    56.553646    7.322883    -1.197314    -18.428261    25.061903    65.100365    43.492393    -5.521355    -2.698784    51.980907    -103.526527    -4.921316    -14.132739    15.311933    4.689015    5.953210    2.575048    7.218459    -0.690097    -14.849774    -5.382701    18.382528    0.854729    3.388278    -1.782586    0.431295    14.381221    -11.214155    4.440479    -13.534378    0.381691    
-55.463772    87.143639    -23.478539    -5.156164    3.735317    -83.909187    5.717971    5.998622    1.130882    17.325365    14.234017    20.034914    -36.602592    -22.832321    14.572823    -16.548843    0.589620    -4.094017    -38.590782    47.597610    -27.105400    2.683689    -1.336613    -52.895374    100.774422    2.831458    56.463821    7.312457    -1.164350    -18.435709    25.002783    65.075584    43.572304    -5.414937    -2.634594    52.005703    -103.772461    -4.917294    -14.234344    15.329453    4.672095    5.967682    2.559125    7.275125    -0.716784    -14.837280    -5.400448    18.382595    0.866187    3.424269    -1.778108    0.419247    14.340192    -11.253703    4.455630    -13.504610    0.413250    
-55.450802    87.144890    -23.475088    -5.168826    3.738284    -83.899574    5.722970    5.997337    1.170939    17.364870    14.158973    20.023909    -36.609829    -22.704992    14.596812    -16.548092    0.589566    -4.132797    -38.586224    47.543907    -27.121300    2.747432    -1.374540    -52.952068    100.603050    2.969827    56.328011    7.286897    -1.185319    -18.451260    25.008533    65.103149    43.621071    -5.501279    -2.689322    51.985214    -103.772652    -4.916423    -14.319345    15.345421    4.639696    5.961878    2.542094    7.332010    -0.731328    -14.823366    -5.414947    18.384148    0.874326    3.442869    -1.781152    0.410476    14.311154    -11.289688    4.472371    -13.479327    0.439977    
-55.432285    87.143097    -23.468660    -5.167690    3.743148    -83.878906    5.728269    5.980414    1.202893    17.385225    14.093028    20.019508    -36.608337    -22.592991    14.623872    -16.543249    0.617265    -4.171957    -38.617851    47.436218    -27.118090    2.723011    -1.375025    -52.987427    100.514740    3.026320    56.138039    7.269739    -1.179593    -18.463366    24.998213    65.107521    43.658848    -5.447001    -2.684188    52.016094    -103.949753    -4.825064    -14.424652    15.359971    4.585026    5.929501    2.523683    7.390859    -0.729403    -14.808013    -5.426179    18.388027    0.878723    3.437974    -1.794935    0.406125    14.296870    -11.317672    4.489139    -13.459760    0.458306    
-55.408031    87.138420    -23.459404    -5.151897    3.750145    -83.846992    5.732589    5.946423    1.225190    17.400940    14.034930    20.017319    -36.609196    -22.491901    14.649290    -16.538494    0.588864    -4.217407    -38.689774    47.366413    -27.074366    2.821270    -1.431924    -53.042244    100.311745    2.984704    55.939331    7.241905    -1.212012    -18.478214    25.043293    65.148682    43.660191    -5.543601    -2.735897    52.023144    -103.917770    -4.720263    -14.521536    15.373049    4.506581    5.871058    2.504252    7.452510    -0.711853    -14.791821    -5.434767    18.394653    0.879145    3.408067    -1.820646    0.406602    14.298190    -11.335772    4.504689    -13.446303    0.467318    
